<svg width="0" height="0" class="hidden">
  <symbol xmlns="http://www.w3.org/2000/svg" viewBox="0 0 512 512" id="blur">
    <path d="M202.52 250.88c-26.66 0-48.35-21.694-48.35-48.36 0-7.101 1.51-13.951 4.488-20.361a7.5 7.5 0 0113.603 6.321 33.066 33.066 0 00-3.092 14.04c0 18.395 14.961 33.36 33.35 33.36 18.395 0 33.36-14.965 33.36-33.36 0-18.389-14.965-33.35-33.36-33.35-4.539 0-8.93.894-13.051 2.656a7.501 7.501 0 01-5.899-13.792c5.996-2.564 12.371-3.865 18.949-3.865 26.666 0 48.36 21.69 48.36 48.35.002 26.667-21.692 48.361-48.358 48.361zm-100.527-16.692c-17.459 0-31.663-14.204-31.663-31.663s14.204-31.663 31.663-31.663 31.663 14.204 31.663 31.663-14.204 31.663-31.663 31.663zm0-48.326c-9.188 0-16.663 7.475-16.663 16.663s7.475 16.663 16.663 16.663 16.663-7.475 16.663-16.663-7.475-16.663-16.663-16.663zm-78.456 40.2C10.559 226.062 0 215.503 0 202.524c0-12.978 10.559-23.537 23.537-23.537s23.537 10.559 23.537 23.537c0 12.979-10.558 23.538-23.537 23.538zm0-32.074c-4.708 0-8.537 3.83-8.537 8.537 0 4.708 3.83 8.537 8.537 8.537s8.537-3.83 8.537-8.537c0-4.708-3.829-8.537-8.537-8.537zm285.939 56.895c-26.665 0-48.358-21.693-48.358-48.358s21.693-48.358 48.358-48.358c26.664 0 48.357 21.693 48.357 48.358 0 26.664-21.693 48.358-48.357 48.358zm0-81.716c-18.394 0-33.358 14.964-33.358 33.358s14.965 33.358 33.358 33.358 33.357-14.964 33.357-33.358-14.964-33.358-33.357-33.358zm0 188.666c-26.665 0-48.358-21.693-48.358-48.358s21.693-48.358 48.358-48.358c26.664 0 48.357 21.693 48.357 48.358s-21.693 48.358-48.357 48.358zm0-81.716c-18.394 0-33.358 14.964-33.358 33.358s14.965 33.358 33.358 33.358 33.357-14.964 33.357-33.358c0-18.393-14.964-33.358-33.357-33.358zm100.531-41.929c-17.459 0-31.663-14.204-31.663-31.663s14.204-31.663 31.663-31.663 31.663 14.204 31.663 31.663-14.204 31.663-31.663 31.663zm0-48.326c-9.188 0-16.663 7.475-16.663 16.663s7.475 16.663 16.663 16.663 16.663-7.475 16.663-16.663-7.475-16.663-16.663-16.663zm78.456 40.2c-12.979 0-23.537-10.559-23.537-23.537s10.559-23.537 23.537-23.537S512 189.546 512 202.524c0 12.979-10.559 23.538-23.537 23.538zm0-32.074c-4.707 0-8.537 3.83-8.537 8.537 0 4.708 3.83 8.537 8.537 8.537s8.537-3.83 8.537-8.537c0-4.708-3.83-8.537-8.537-8.537zM202.524 357.833c-26.665 0-48.358-21.693-48.358-48.358s21.693-48.358 48.358-48.358 48.358 21.693 48.358 48.358c.001 26.665-21.693 48.358-48.358 48.358zm0-81.716c-18.394 0-33.358 14.964-33.358 33.358s14.964 33.358 33.358 33.358 33.358-14.964 33.358-33.358c.001-18.393-14.964-33.358-33.358-33.358zm-100.531 65.021c-17.459 0-31.663-14.204-31.663-31.663s14.204-31.663 31.663-31.663 31.663 14.204 31.663 31.663-14.204 31.663-31.663 31.663zm0-48.325c-9.188 0-16.663 7.475-16.663 16.663s7.475 16.663 16.663 16.663 16.663-7.475 16.663-16.663-7.475-16.663-16.663-16.663zm-78.456 40.199C10.559 333.012 0 322.454 0 309.476c0-12.979 10.559-23.537 23.537-23.537s23.537 10.559 23.537 23.537-10.558 23.536-23.537 23.536zm0-32.074c-4.708 0-8.537 3.83-8.537 8.537s3.83 8.537 8.537 8.537 8.537-3.83 8.537-8.537-3.829-8.537-8.537-8.537zm386.47 40.2c-17.459 0-31.663-14.204-31.663-31.663s14.204-31.663 31.663-31.663 31.663 14.204 31.663 31.663-14.204 31.663-31.663 31.663zm0-48.325c-9.188 0-16.663 7.475-16.663 16.663s7.475 16.663 16.663 16.663 16.663-7.475 16.663-16.663-7.475-16.663-16.663-16.663zM395.744 437.01a7.463 7.463 0 01-4.418-1.444c-8.132-5.94-12.986-15.494-12.986-25.557 0-17.463 14.207-31.67 31.67-31.67 17.457 0 31.66 14.207 31.66 31.67 0 10.044-4.847 19.595-12.965 25.548a7.498 7.498 0 01-10.483-1.613 7.5 7.5 0 011.612-10.483c4.28-3.139 6.836-8.168 6.836-13.452 0-9.192-7.474-16.67-16.66-16.67-9.191 0-16.67 7.478-16.67 16.67a16.704 16.704 0 006.834 13.443 7.5 7.5 0 01-4.43 13.558zm92.719-103.998c-12.979 0-23.537-10.559-23.537-23.537 0-12.979 10.559-23.537 23.537-23.537S512 296.497 512 309.476c0 12.978-10.559 23.536-23.537 23.536zm0-32.074c-4.707 0-8.537 3.83-8.537 8.537s3.83 8.537 8.537 8.537 8.537-3.83 8.537-8.537-3.83-8.537-8.537-8.537zM309.476 133.656c-17.459 0-31.663-14.204-31.663-31.663s14.204-31.663 31.663-31.663 31.662 14.204 31.662 31.663-14.203 31.663-31.662 31.663zm0-48.325c-9.188 0-16.663 7.475-16.663 16.663s7.475 16.663 16.663 16.663 16.662-7.475 16.662-16.663-7.475-16.663-16.662-16.663zm100.531 48.325c-17.459 0-31.663-14.204-31.663-31.663s14.204-31.663 31.663-31.663 31.663 14.204 31.663 31.663-14.204 31.663-31.663 31.663zm0-48.325c-9.188 0-16.663 7.475-16.663 16.663s7.475 16.663 16.663 16.663 16.663-7.475 16.663-16.663-7.475-16.663-16.663-16.663zM101.993 441.669c-17.459 0-31.663-14.204-31.663-31.663s14.204-31.663 31.663-31.663 31.663 14.204 31.663 31.663-14.204 31.663-31.663 31.663zm0-48.325c-9.188 0-16.663 7.475-16.663 16.663s7.475 16.663 16.663 16.663 16.663-7.475 16.663-16.663-7.475-16.663-16.663-16.663zm0-259.688c-17.459 0-31.663-14.204-31.663-31.663S84.534 70.33 101.993 70.33s31.663 14.204 31.663 31.663-14.204 31.663-31.663 31.663zm0-48.325c-9.188 0-16.663 7.475-16.663 16.663s7.475 16.663 16.663 16.663 16.663-7.475 16.663-16.663-7.475-16.663-16.663-16.663zm207.483-38.257c-12.979 0-23.537-10.559-23.537-23.537C285.938 10.559 296.497 0 309.476 0s23.537 10.559 23.537 23.537-10.559 23.537-23.537 23.537zm0-32.074c-4.707 0-8.537 3.83-8.537 8.537s3.83 8.537 8.537 8.537 8.537-3.83 8.537-8.537S314.183 15 309.476 15zm0 426.669c-17.459 0-31.663-14.204-31.663-31.663s14.204-31.663 31.663-31.663 31.662 14.204 31.662 31.663-14.203 31.663-31.662 31.663zm0-48.325c-9.188 0-16.663 7.475-16.663 16.663s7.475 16.663 16.663 16.663 16.662-7.475 16.662-16.663-7.475-16.663-16.662-16.663zm0 118.656c-12.979 0-23.537-10.559-23.537-23.537s10.559-23.537 23.537-23.537 23.537 10.559 23.537 23.537S322.454 512 309.476 512zm0-32.074c-4.707 0-8.537 3.83-8.537 8.537s3.83 8.537 8.537 8.537 8.537-3.83 8.537-8.537-3.83-8.537-8.537-8.537zm-106.952-346.27c-17.459 0-31.663-14.204-31.663-31.663s14.204-31.663 31.663-31.663 31.663 14.204 31.663 31.663-14.204 31.663-31.663 31.663zm0-48.325c-9.188 0-16.663 7.475-16.663 16.663s7.475 16.663 16.663 16.663 16.663-7.475 16.663-16.663-7.475-16.663-16.663-16.663zm0-38.257c-12.978 0-23.537-10.559-23.537-23.537C178.988 10.559 189.546 0 202.524 0c12.979 0 23.537 10.559 23.537 23.537.001 12.978-10.558 23.537-23.537 23.537zm0-32.074c-4.707 0-8.537 3.83-8.537 8.537s3.83 8.537 8.537 8.537c4.708 0 8.537-3.83 8.537-8.537S207.232 15 202.524 15zm0 426.669c-17.459 0-31.663-14.204-31.663-31.663s14.204-31.663 31.663-31.663 31.663 14.204 31.663 31.663-14.204 31.663-31.663 31.663zm0-48.325c-9.188 0-16.663 7.475-16.663 16.663s7.475 16.663 16.663 16.663 16.663-7.475 16.663-16.663-7.475-16.663-16.663-16.663zm0 118.656c-12.978 0-23.537-10.559-23.537-23.537s10.559-23.537 23.537-23.537c12.979 0 23.537 10.559 23.537 23.537S215.503 512 202.524 512zm0-32.074c-4.707 0-8.537 3.83-8.537 8.537s3.83 8.537 8.537 8.537c4.708 0 8.537-3.83 8.537-8.537s-3.829-8.537-8.537-8.537z"></path>
  </symbol>
</svg>