<svg width="0" height="0" class="hidden">
  <symbol xmlns="http://www.w3.org/2000/svg" viewBox="0 0 480 480" id="document">
    <path d="M160 344h-16a8 8 0 000 16h16a8 8 0 000-16zm224 0H192a8 8 0 000 16h192a8 8 0 000-16zm-224-48h-16a8 8 0 000 16h16a8 8 0 000-16zm224 0H192a8 8 0 000 16h192a8 8 0 000-16zm-224-48h-16a8 8 0 000 16h16a8 8 0 000-16zm224 0H192a8 8 0 000 16h192a8 8 0 000-16zm-224-48h-16a8 8 0 000 16h16a8 8 0 000-16zm224 0H192a8 8 0 000 16h192a8 8 0 000-16zm-224-48h-16a8 8 0 000 16h16a8 8 0 000-16zm224 0H192a8 8 0 000 16h192a8 8 0 000-16z"></path>
    <path d="M439.896 119.496a7.557 7.557 0 00-.408-2.056c-.088-.256-.152-.504-.264-.752a7.998 7.998 0 00-1.6-2.344l-112-112a7.998 7.998 0 00-2.344-1.6c-.248-.112-.496-.176-.744-.264a7.967 7.967 0 00-2.072-.416C320.328.088 320.176 0 320 0H96a8 8 0 00-8 8v24H48a8 8 0 00-8 8v432a8 8 0 008 8h336a8 8 0 008-8v-40h40a8 8 0 008-8V120c0-.176-.088-.328-.104-.504zM328 27.312L412.688 112H328V27.312zM376 464H56V48h32v376a8 8 0 008 8h280v32zm48-48H104V16h208v104a8 8 0 008 8h104v288z"></path>
    <path d="M192 72h-48a8 8 0 00-8 8v48a8 8 0 008 8h48a8 8 0 008-8V80a8 8 0 00-8-8zm-8 48h-32V88h32v32z"></path>
  </symbol>
  <symbol xmlns="http://www.w3.org/2000/svg" viewBox="0 -43 512 512" id="writing">
    <path d="M405.379 361.273a7.499 7.499 0 00-10.352 2.317c-18.73 29.52-50.754 47.144-85.664 47.144H116.367C60.473 410.734 15 365.258 15 309.364V129.62c0-4.14-3.36-7.5-7.5-7.5s-7.5 3.36-7.5 7.5v179.742c0 64.168 52.203 116.371 116.367 116.371h192.996c40.074 0 76.836-20.23 98.328-54.109a7.502 7.502 0 00-2.312-10.352zM339.44 161.97l-57.183 57.187a7.497 7.497 0 000 10.606 7.468 7.468 0 005.3 2.199 7.48 7.48 0 005.305-2.2l57.184-57.183a7.502 7.502 0 000-10.61c-2.926-2.925-7.676-2.925-10.606 0zM501.148 37.012l-26.14-26.14c-14.469-14.474-38.016-14.474-52.485 0l-27.136 27.136C373.34 13.758 342.44 0 309.363 0H116.367C89.597 0 63.461 9.316 42.77 26.23 22.37 42.902 8.102 66.195 2.598 91.812a7.5 7.5 0 007.34 9.079c3.46 0 6.57-2.407 7.324-5.926 4.797-22.305 17.222-42.59 35-57.121C70.282 23.114 93.047 15 116.367 15h192.996c29.047 0 56.168 12.18 75.403 33.629l-79.758 79.758H95.863a7.5 7.5 0 100 15h194.145l-35.961 35.957H95.863a7.503 7.503 0 100 15.004h143.184l-46.524 46.523a168.62 168.62 0 00-32.78 46.207l-21.348 44.348c-5.907 12.277-3.5 26.433 6.132 36.066 6.125 6.125 14.082 9.328 22.223 9.328 4.656 0 9.375-1.05 13.84-3.199l21.515-10.355c.004-.004.012-.004.016-.008l22.82-10.98a168.737 168.737 0 0046.207-32.782L410.734 179.91v129.453c0 8.215-.984 16.383-2.925 24.282a7.498 7.498 0 005.496 9.07 7.498 7.498 0 009.07-5.492 116.742 116.742 0 003.36-27.86V164.91l20.847-20.847c.004-.004.004-.004.004-.008.004 0 .004 0 .004-.004l54.558-54.555c14.47-14.473 14.47-38.016 0-52.484zM174.086 360.105c-7.828 3.77-14.922.81-18.953-3.218-4.028-4.032-6.988-11.125-3.219-18.953l6.328-13.153a185.437 185.437 0 0115.301 13.696 185.437 185.437 0 0113.695 15.3zm44.348-21.343l-17.356 8.351a199.39 199.39 0 00-16.93-19.242 199.794 199.794 0 00-19.242-16.93l8.352-17.355c5.765-11.973 13-23.07 21.582-33.125l56.719 56.719a153.722 153.722 0 01-33.125 21.582zm44.078-31.844l-57.41-57.41L373.266 81.34l57.41 57.41zm178.773-178.773l-57.41-57.41 18.516-18.516 57.414 57.41zm49.258-49.258L470.41 99.02 413 41.61l20.129-20.133c4.312-4.313 9.973-6.465 15.637-6.465 5.66 0 11.324 2.152 15.632 6.465l26.141 26.14c8.621 8.621 8.621 22.649.004 31.27zM95.863 92.426h234.008a7.5 7.5 0 100-15H95.863a7.5 7.5 0 100 15zm0 0"></path>
  </symbol>
  <symbol xmlns="http://www.w3.org/2000/svg" viewBox="0 0 45.532 45.532" id="profile-user">
    <path d="M22.766.001C10.194.001 0 10.193 0 22.766s10.193 22.765 22.766 22.765c12.574 0 22.766-10.192 22.766-22.765S35.34.001 22.766.001zm0 6.807a7.53 7.53 0 11.001 15.06 7.53 7.53 0 01-.001-15.06zm-.005 32.771a16.708 16.708 0 01-10.88-4.012 3.209 3.209 0 01-1.126-2.439c0-4.217 3.413-7.592 7.631-7.592h8.762c4.219 0 7.619 3.375 7.619 7.592a3.2 3.2 0 01-1.125 2.438 16.702 16.702 0 01-10.881 4.013z"></path>
  </symbol>
  <symbol xmlns="http://www.w3.org/2000/svg" viewBox="0 0 512 512" id="bar-chart">
    <path d="M488.399 492h-21.933V173.536c0-14.823-12.06-26.882-26.882-26.882H390.56c-14.823 0-26.882 12.06-26.882 26.882V492h-55.692V317.825c0-14.823-12.059-26.882-26.882-26.882H232.08c-14.823 0-26.882 12.06-26.882 26.882V492h-55.692v-90.204c0-14.823-12.06-26.882-26.882-26.882H73.599c-14.823 0-26.882 12.06-26.882 26.882V492H23.601c-5.523 0-10 4.477-10 10s4.477 10 10 10h464.798c5.523 0 10-4.477 10-10s-4.477-10-10-10zm-358.895 0H66.716v-90.204a6.89 6.89 0 016.882-6.882h49.024a6.89 6.89 0 016.882 6.882V492zm158.481 0h-62.788V317.825a6.89 6.89 0 016.882-6.882h49.024a6.89 6.89 0 016.882 6.882V492zm158.481 0h-62.788V173.536a6.89 6.89 0 016.882-6.882h49.024a6.89 6.89 0 016.882 6.882V492zm19.976-481.484A9.965 9.965 0 00455.95.024c-.161-.007-.32-.024-.484-.024h-60.5c-5.523 0-10 4.477-10 10s4.477 10 10 10h37.357l-98.857 98.858-37.28-37.28a10.001 10.001 0 00-14.142 0l-179.769 179.77c-3.905 3.905-3.905 10.237 0 14.143 1.953 1.951 4.512 2.927 7.071 2.927s5.119-.976 7.071-2.929L289.115 102.79l37.28 37.28c3.905 3.905 10.237 3.905 14.143 0L446.466 34.143v33.81c0 5.523 4.477 10 10 10s10-4.477 10-10V11c0-.163-.017-.322-.024-.484z"></path>
    <circle cx="75.64" cy="303.31" r="10"></circle>
  </symbol>
</svg>